<svg height="512" viewBox="0 0 64 64" width="512" xmlns="http://www.w3.org/2000/svg"><g id="Layer_30" data-name="Layer 30"><path d="m52 20-6 42h-28l-6-42" fill="#cbccca"/><path d="m12 20 5.571 39h21.429a5 5 0 0 0 5-5v-34z" fill="#e0dee0"/><path d="m12 10h37v4h-37z" fill="#858685"/><path d="m9 14h46v6h-46z" fill="#858685"/><rect fill="#fff" height="30" rx="2" width="4" x="22" y="26"/><rect fill="#fff" height="30" rx="2" width="4" x="30" y="26"/><path d="m39 10v-4a4 4 0 0 0 -4-4h-6a4 4 0 0 0 -4 4v4h4v-3a1 1 0 0 1 1-1h4a1 1 0 0 1 1 1v3z" fill="#cbccca"/><path d="m34 2h-5a4 4 0 0 0 -4 4v4h3v-3a1 1 0 0 1 1-1h5a1 1 0 0 1 1 1v3h3v-4a4 4 0 0 0 -4-4z" fill="#e0dee0"/><rect fill="#fff" height="30" rx="2" width="4" x="38" y="26"/><path d="m9 14v4h42a2 2 0 0 0 2-2v-2z" fill="#9d9e9d"/><path d="m12 12h33a2 2 0 0 0 2-2h-35z" fill="#9d9e9d"/><rect fill="#f9f8f9" height="2" rx="1" width="5" x="31" y="3"/><path d="m55 13h-4v-3a1 1 0 0 0 -1-1h-10v-3a5.006 5.006 0 0 0 -5-5h-6a5.006 5.006 0 0 0 -5 5v3h-11a1 1 0 0 0 -1 1v3h-3a1 1 0 0 0 -1 1v6a1 1 0 0 0 1 1h2.132l5.878 41.142a1 1 0 0 0 .99.858h28a1 1 0 0 0 .99-.858l5.878-41.142h2.132a1 1 0 0 0 1-1v-6a1 1 0 0 0 -1-1zm-29-7a3 3 0 0 1 3-3h6a3 3 0 0 1 3 3v3h-2v-2a2 2 0 0 0 -2-2h-4a2 2 0 0 0 -2 2v2h-2zm8 3h-4v-2h4zm-20 2h35v2h-35zm31.133 50h-26.266l-5.714-40h37.694zm8.867-42h-44v-4h44z"/><path d="m24 57a3 3 0 0 0 3-3v-26a3 3 0 0 0 -6 0v26a3 3 0 0 0 3 3zm-1-29a1 1 0 0 1 2 0v26a1 1 0 0 1 -2 0z"/><path d="m32 57a3 3 0 0 0 3-3v-26a3 3 0 0 0 -6 0v26a3 3 0 0 0 3 3zm-1-29a1 1 0 0 1 2 0v26a1 1 0 0 1 -2 0z"/><path d="m40 57a3 3 0 0 0 3-3v-26a3 3 0 0 0 -6 0v26a3 3 0 0 0 3 3zm-1-29a1 1 0 0 1 2 0v26a1 1 0 0 1 -2 0z"/></g></svg>