<svg width="26" height="27" viewBox="0 0 26 27" fill="none" xmlns="http://www.w3.org/2000/svg">
<path d="M12.75 10.25H15.25V6.49997H19V3.99997H15.25V0.249969H12.75V3.99997H9V6.49997H12.75V10.25ZM7.75 21.5C6.36875 21.5 5.2625 22.6187 5.2625 24C5.2625 25.3812 6.36875 26.5 7.75 26.5C9.13125 26.5 10.25 25.3812 10.25 24C10.25 22.6187 9.13125 21.5 7.75 21.5ZM20.25 21.5C18.8687 21.5 17.7625 22.6187 17.7625 24C17.7625 25.3812 18.8687 26.5 20.25 26.5C21.6313 26.5 22.75 25.3812 22.75 24C22.75 22.6187 21.6313 21.5 20.25 21.5ZM7.96875 17.4375C7.96875 17.3812 7.98125 17.3312 8.00625 17.2875L9.13125 15.25H18.4438C19.3813 15.25 20.2 14.7312 20.6313 13.9625L25.4563 5.19997L23.2688 3.99997H23.2625L21.8813 6.49997L18.4375 12.75H9.66875L9.50625 12.4125L6.7 6.49997L5.5125 3.99997L4.33125 1.49997H0.25V3.99997H2.75L7.25 13.4812L5.55625 16.5437C5.3625 16.9062 5.25 17.3125 5.25 17.75C5.25 19.1312 6.36875 20.25 7.75 20.25H22.75V17.75H8.28125C8.10625 17.75 7.96875 17.6125 7.96875 17.4375Z" fill="#A06593"/>
</svg>
