<svg width="26" height="26" viewBox="0 0 26 26" fill="none" xmlns="http://www.w3.org/2000/svg">
<g clip-path="url(#clip0)">
<path d="M5.34023 19.3018C5.64492 18.9971 5.64492 18.5018 5.34023 18.1971L3.66211 16.519H17.4043C17.8355 16.519 18.1855 16.169 18.1855 15.7377C18.1855 15.3065 17.8355 14.9565 17.4043 14.9565H3.66211L5.4543 13.1643C5.75898 12.8596 5.75898 12.3643 5.4543 12.0596C5.14961 11.7549 4.6543 11.7549 4.34961 12.0596L1.22617 15.183C1.07305 15.3361 0.998047 15.5361 0.998047 15.7377C0.998047 15.9393 1.07305 16.1393 1.22617 16.2924L4.23555 19.3018C4.5418 19.608 5.03555 19.608 5.34023 19.3018ZM25.7699 10.5111L22.7605 7.50177C22.4559 7.19708 21.9605 7.19708 21.6559 7.50177C21.3512 7.80646 21.3512 8.30177 21.6559 8.60646L23.334 10.2846H9.5918C9.16055 10.2846 8.81055 10.6346 8.81055 11.0658C8.81055 11.4971 9.16055 11.8471 9.5918 11.8471H23.334L21.5418 13.6393C21.2371 13.944 21.2371 14.4393 21.5418 14.744C21.8465 15.0486 22.3418 15.0486 22.6465 14.744L25.7699 11.6205C25.923 11.4674 25.998 11.2674 25.998 11.0658C25.998 10.8643 25.923 10.6643 25.7699 10.5111Z" fill="#353A4B"/>
</g>
<defs>
<clipPath id="clip0">
<rect width="25" height="25" fill="white" transform="translate(0.998047 0.893951)"/>
</clipPath>
</defs>
</svg>
