<svg width="23" height="25" viewBox="0 0 23 25" fill="none" xmlns="http://www.w3.org/2000/svg">
<path d="M19 17.613C18.0505 17.613 17.194 17.982 16.5445 18.576L7.6375 13.3815C7.7065 13.0995 7.75 12.8055 7.75 12.5055C7.75 12.2055 7.7065 11.913 7.6375 11.631L16.45 6.48747C17.1399 7.13755 18.052 7.4997 19 7.49997C21.0685 7.49997 22.75 5.81847 22.75 3.74997C22.75 1.68147 21.0685 -3.05176e-05 19 -3.05176e-05C16.9315 -3.05176e-05 15.25 1.68147 15.25 3.74997C15.25 4.04997 15.2935 4.34397 15.3625 4.62447L6.55 9.76797C5.85964 9.11854 4.94781 8.75649 4 8.75547C1.9315 8.75547 0.25 10.437 0.25 12.5055C0.25 14.574 1.9315 16.2555 4 16.2555C4.94796 16.2552 5.86005 15.8931 6.55 15.243L15.457 20.4375C15.3914 20.7056 15.3577 20.9805 15.3565 21.2565C15.3568 21.9767 15.5706 22.6806 15.9709 23.2793C16.3712 23.878 16.94 24.3446 17.6055 24.62C18.2709 24.8955 19.003 24.9675 19.7094 24.8269C20.4157 24.6863 21.0645 24.3395 21.5738 23.8303C22.083 23.321 22.4299 22.6722 22.5704 21.9659C22.711 21.2595 22.639 20.5274 22.3636 19.8619C22.0881 19.1965 21.6215 18.6277 21.0228 18.2274C20.4241 17.8271 19.7202 17.6133 19 17.613Z" fill="#A06593"/>
</svg>
