<svg width="26" height="13" viewBox="0 0 26 13" fill="none" xmlns="http://www.w3.org/2000/svg">
<path d="M5.34023 12.3018C5.64492 11.9971 5.64492 11.5018 5.34023 11.1971L3.66211 9.51896H17.4043C17.8355 9.51896 18.1855 9.16896 18.1855 8.73771C18.1855 8.30646 17.8355 7.95646 17.4043 7.95646H3.66211L5.4543 6.16427C5.75898 5.85958 5.75898 5.36427 5.4543 5.05958C5.14961 4.75489 4.6543 4.75489 4.34961 5.05958L1.22617 8.18302C1.07305 8.33615 0.998047 8.53614 0.998047 8.73771C0.998047 8.93927 1.07305 9.13927 1.22617 9.29239L4.23555 12.3018C4.5418 12.608 5.03555 12.608 5.34023 12.3018ZM25.7699 3.51115L22.7605 0.50177C22.4559 0.197083 21.9605 0.197083 21.6559 0.50177C21.3512 0.806458 21.3512 1.30177 21.6559 1.60646L23.334 3.28458H9.5918C9.16055 3.28458 8.81055 3.63458 8.81055 4.06583C8.81055 4.49708 9.16055 4.84708 9.5918 4.84708H23.334L21.5418 6.63927C21.2371 6.94396 21.2371 7.43927 21.5418 7.74396C21.8465 8.04865 22.3418 8.04865 22.6465 7.74396L25.7699 4.62052C25.923 4.46739 25.998 4.2674 25.998 4.06583C25.998 3.86427 25.923 3.66427 25.7699 3.51115Z" fill="#353A4B"/>
</svg>
