<svg width="14" height="15" viewBox="0 0 14 15" fill="none" xmlns="http://www.w3.org/2000/svg">
<path d="M13.3229 6.89078L8.08305 0.967344C7.73596 0.62026 7.17107 0.62026 6.82398 0.967344C6.4769 1.31443 6.4769 1.87932 6.82398 2.22641L11.5167 7.53182L6.82398 12.8372C6.4769 13.1843 6.4769 13.7492 6.82398 14.0963C7.17107 14.4434 7.73596 14.4434 8.08305 14.0963L13.3229 8.17287C13.5 7.99578 13.585 7.7638 13.5815 7.53182C13.5833 7.29984 13.5 7.06787 13.3229 6.89078ZM0.472006 14.0981C0.819089 14.4452 1.38398 14.4452 1.73107 14.0981L6.97096 8.17464C7.14805 7.99755 7.23305 7.76557 7.2295 7.53359C7.23305 7.30162 7.14805 7.06787 6.97096 6.89255L1.73284 0.967344C1.38576 0.62026 0.82086 0.62026 0.473776 0.967344C0.126693 1.31443 0.126693 1.87932 0.473776 2.22641L5.16648 7.53182L0.473776 12.8372C0.124922 13.1861 0.124922 13.751 0.472006 14.0981Z" fill="#353A4B"/>
</svg>
