<svg width="26" height="25" viewBox="0 0 26 25" fill="none" xmlns="http://www.w3.org/2000/svg">
<path d="M0.274192 24.7801C0.426582 24.9325 0.626644 25.0083 0.826705 25.0083C1.02677 25.0083 1.22683 24.9318 1.38 24.7794L12.5491 13.597L23.7181 24.7794C23.8705 24.9325 24.0706 25.0083 24.2714 25.0083C24.4715 25.0083 24.6715 24.9318 24.8239 24.7801C25.1295 24.4754 25.1295 23.9807 24.8247 23.6751L13.6666 12.5045L24.8239 1.33465C25.1287 1.02909 25.1287 0.534405 24.8232 0.229624C24.5168 -0.0759391 24.0229 -0.0759388 23.7181 0.230405L12.5483 11.4128L1.37922 0.230405C1.07366 -0.0751573 0.578973 -0.0751576 0.274192 0.229624C-0.0313713 0.534405 -0.0313708 1.02909 0.27341 1.33465L11.43 12.5045L0.27341 23.6751C-0.0313708 23.9799 -0.0313713 24.4754 0.274192 24.7801Z" fill="#8F8D8D"/>
</svg>
