<svg width="19" height="19" viewBox="0 0 19 19" fill="none" xmlns="http://www.w3.org/2000/svg">
<path d="M0.353516 18.6469C0.658203 18.9516 1.15352 18.9516 1.4582 18.6469L17.3129 2.79219V8.71875C17.3129 9.15 17.6629 9.5 18.0941 9.5C18.5254 9.5 18.8754 9.15 18.8754 8.71875V0.90625C18.8754 0.804688 18.8551 0.703125 18.8145 0.607813C18.7348 0.417188 18.5832 0.264063 18.3926 0.185938C18.2973 0.145313 18.1957 0.125 18.0941 0.125H10.2816C9.85039 0.125 9.50039 0.475 9.50039 0.90625C9.50039 1.3375 9.85039 1.6875 10.2816 1.6875H16.2082L0.353516 17.5406C0.0488281 17.8469 0.0488281 18.3406 0.353516 18.6469Z" fill="#353A4B"/>
</svg>
